# xmcd
#
# Track frame offsets:
#	150
#	14614
#	32687
#	53468
#	68699
#	89480
#	111467
#	132473
#	154304
#	176120
#	194126
#	214820
#	228176
#	251882
#	274386
#	299064
#
# Disc length: 4311 seconds
#
# Revision: 0
# Processed by: cddbd v1.5.2PL0 Copyright (c) Steve Scherf et al.
# Submitted via: EZCDAudioConverter 2.8.0.1
#
DISCID=0210d510
DTITLE=臧天朔 - 臧天朔 新康定情歌
DYEAR=2000
DGENRE=
TTITLE0=新康定情歌
TTITLE1=山歌好比春江水
TTITLE2=新娘新郎
TTITLE3=你和我
TTITLE4=分别的时候
TTITLE5=我就是这个模样
TTITLE6=天问
TTITLE7=心还在等侯
TTITLE8=伤心捧出自己
TTITLE9=懒得再说
TTITLE10=一笔勾销
TTITLE11=野火烧
TTITLE12=心的祈祷
TTITLE13=只有一条长江
TTITLE14=爱到永远
TTITLE15=朋友
EXTD=
EXTT0=
EXTT1=
EXTT2=
EXTT3=
EXTT4=
EXTT5=
EXTT6=
EXTT7=
EXTT8=
EXTT9=
EXTT10=
EXTT11=
EXTT12=
EXTT13=
EXTT14=
EXTT15=
PLAYORDER=
